<?xml version="1.0" encoding="utf-8"?>
<!-- Generator: Adobe Illustrator 23.0.1, SVG Export Plug-In . SVG Version: 6.00 Build 0)  -->
<svg version="1.1" id="Layer_1" xmlns="http://www.w3.org/2000/svg" xmlns:xlink="http://www.w3.org/1999/xlink" x="0px" y="0px"
	 viewBox="0 0 864.2 864" style="enable-background:new 0 0 864.2 864;" xml:space="preserve">
<style type="text/css">
	.st0{fill:#D36C07;}
</style>
<circle cx="432" cy="432" r="432"/>
<path class="st0" d="M383.7,856.2c-13.1-2.4-26.3-4.4-39.4-7.2c-89.6-18.9-168.2-66.9-223.9-128.5c134.5-160.6,273.3-317,444-442.9
	c18.7,23,37.2,45.9,54.8,67.5c-12,13.7-24.5,26-34.7,39.9c-20.8,28.7-33.6,61.5-42.1,95.6c-11.4,45.5-21.5,91.3-31.3,137.2
	c-10.4,48.4-19.7,97.1-38.3,143.3c-12,29.8-27.3,57.5-53,77.9c-8.2,6.5-17.5,11.5-26.3,17.2C390.3,856.2,387,856.2,383.7,856.2z
	 M8.7,457.2c0.9,7.2,1.8,14.4,2.6,21.7c8.5,79.5,37.6,150.8,86,214.3c3.7,4.8,7.6,9.4,12.3,15.1
	c130.1-164.4,275.3-312.7,433.7-446.1c-20.5-20.7-40.1-40.6-60-60.7c-15.9,13.9-34.1,25.1-53.8,33.9c-44,19.6-90.7,29.6-137.6,39.3
	c-53.2,11-106.9,20.2-158.5,38.1c-52.4,18.1-98,45.1-124.7,96.4C8.7,425.1,8.7,441.1,8.7,457.2z M447.4,856.2
	c13.3-1.3,26.7-2.4,40-4.1c89.7-11.5,167.5-48.6,234.1-109.5c5.7-5.2,12.7-10.3,15.6-17c6.1-13.9,11.4-28.5,14.2-43.3
	c6.2-32.9,2.2-65.8-4.8-98.2c-11.8-54.8-32.9-106-61.4-154.1c-11.8-19.9-24.8-39-42-54.7c-6.4-5.8-13.9-8.2-21.3-4
	c-8.3,4.6-16.8,9.9-23.1,16.8c-15.8,17.2-23.8,38.7-31,60.5C551,499.3,542.1,551.8,531,603.8c-11.1,51.8-22.2,103.6-41.2,153.2
	c-14,36.6-31.7,71-63.2,96.3c-0.8,0.7-1.2,1.9-1.9,2.9C432.3,856.2,439.8,856.2,447.4,856.2z M47.4,336.7
	c26.7-21.5,57.6-34.5,89.8-45c59.8-19.7,121.9-30.2,183.1-44.2c32.7-7.4,65-17,97.2-26.8c13.5-4.1,26.3-11.1,35.1-22.7
	c9.9-13.1,9.3-19.1,0.3-28.6c-6.9-7.3-14.4-14.4-22.6-20.2c-35.4-24.9-74.9-41.3-116.4-52.8c-34-9.4-68.5-15.3-104-11.4
	c-13.1,1.4-25.5,3.7-36.6,12.5C131,131,95.7,170.5,68.2,216.8c-30.8,51.7-49.5,107.5-56,167.5C19.4,365,31.5,349.5,47.4,336.7z
	 M761.1,703c26.7-32.4,48.1-68,64.2-106.7c25.5-61.8,36-126,31.1-192.7c-0.2-2.9-1.2-6-2.5-8.6c-26.4-53.9-89.1-82.4-146.3-75.7
	c-16.4,1.9-31.7,7-44.4,18.3c-9.4,8.3-10.6,12.9-4.5,23.9c6.8,12.1,14,24,21.5,35.7c24.1,37.4,46.9,75.6,63.4,117.2
	c15.3,38.6,24.9,78.5,24.5,120.3c-0.2,24.1-3.8,47.8-9.8,71.6C759.2,705,760.2,704.1,761.1,703z M742.3,143.1
	c-25.7,12.1-143.4,98.5-164.6,121c18.5,23.2,37,46.5,55.5,69.8c27.1-13.9,54.3-25.1,83.8-29c39.1-5.2,74.1,3.9,102.8,31.7
	c12.2,11.9,22.5,25.7,33.2,38.1C844.9,298.1,804.3,206.7,742.3,143.1z M204.1,76.6c24.4,0,48.9-1.1,73.3,0.3
	c33.2,1.9,64.8,11.2,95.1,24.7c29.7,13.2,56.2,31.5,83.1,49.3c6.4,4.3,13.4,7.9,20.4,11.2c6.1,2.9,12.1,2.3,18-1.7
	c23.2-15.9,35.9-37.6,37.1-65.6c1.3-31.8-13.6-57-33.9-79.8c-1-1.1-2.8-1.8-4.3-2c-41.1-5.8-82.3-5.6-123.3,0.5
	c-39.3,5.9-77.2,17-113.2,34c-18.2,8.6-35.6,18.7-53.4,28.2C203.4,75.9,203.8,76.2,204.1,76.6z M731,130.9
	C669.4,71.5,598.4,33.7,513.6,16.4c46.5,63.3,40.6,120-17,170.8c22.1,20.7,43.3,40.5,64.8,60.6C615.9,205.6,667.3,160.2,731,130.9z"
	/>
</svg>
