  0
SECTION
  2
HEADER
  9
$ACADVER
  1
AC1024
  9
$ACADMAINTVER
 70
     6
  9
$DWGCODEPAGE
  3
ANSI_1252
  9
$INSBASE
 10
0.0
 20
0.0
 30
0.0
  9
$EXTMIN
 10
1.000000000000000E+20
 20
1.000000000000000E+20
 30
1.000000000000000E+20
  9
$EXTMAX
 10
-1.000000000000000E+20
 20
-1.000000000000000E+20
 30
-1.000000000000000E+20
  9
$LIMMIN
 10
0.0
 20
0.0
  9
$LIMMAX
 10
12.0
 20
9.0
  9
$ORTHOMODE
 70
     0
  9
$REGENMODE
 70
     1
  9
$FILLMODE
 70
     1
  9
$QTEXTMODE
 70
     0
  9
$MIRRTEXT
 70
     1
  9
$LTSCALE
 40
1.0
  9
$ATTMODE
 70
     1
  9
$TEXTSIZE
 40
0.2
  9
$TRACEWID
 40
0.05
  9
$TEXTSTYLE
  7
Standard
  9
$CLAYER
  8
0
  9
$CELTYPE
  6
ByLayer
  9
$CECOLOR
 62
   256
  9
$CELTSCALE
 40
1.0
  9
$DISPSILH
 70
     0
  9
$DIMSCALE
 40
1.0
  9
$DIMASZ
 40
0.18
  9
$DIMEXO
 40
0.0625
  9
$DIMDLI
 40
0.38
  9
$DIMRND
 40
0.0
  9
$DIMDLE
 40
0.0
  9
$DIMEXE
 40
0.18
  9
$DIMTP
 40
0.0
  9
$DIMTM
 40
0.0
  9
$DIMTXT
 40
0.18
  9
$DIMCEN
 40
0.09
  9
$DIMTSZ
 40
0.0
  9
$DIMTOL
 70
     0
  9
$DIMLIM
 70
     0
  9
$DIMTIH
 70
     1
  9
$DIMTOH
 70
     1
  9
$DIMSE1
 70
     0
  9
$DIMSE2
 70
     0
  9
$DIMTAD
 70
     0
  9
$DIMZIN
 70
     0
  9
$DIMBLK
  1

  9
$DIMASO
 70
     1
  9
$DIMSHO
 70
     1
  9
$DIMPOST
  1

  9
$DIMAPOST
  1

  9
$DIMALT
 70
     0
  9
$DIMALTD
 70
     2
  9
$DIMALTF
 40
25.4
  9
$DIMLFAC
 40
1.0
  9
$DIMTOFL
 70
     0
  9
$DIMTVP
 40
0.0
  9
$DIMTIX
 70
     0
  9
$DIMSOXD
 70
     0
  9
$DIMSAH
 70
     0
  9
$DIMBLK1
  1

  9
$DIMBLK2
  1

  9
$DIMSTYLE
  2
Standard
  9
$DIMCLRD
 70
     0
  9
$DIMCLRE
 70
     0
  9
$DIMCLRT
 70
     0
  9
$DIMTFAC
 40
1.0
  9
$DIMGAP
 40
0.09
  9
$DIMJUST
 70
     0
  9
$DIMSD1
 70
     0
  9
$DIMSD2
 70
     0
  9
$DIMTOLJ
 70
     1
  9
$DIMTZIN
 70
     0
  9
$DIMALTZ
 70
     0
  9
$DIMALTTZ
 70
     0
  9
$DIMUPT
 70
     0
  9
$DIMDEC
 70
     4
  9
$DIMTDEC
 70
     4
  9
$DIMALTU
 70
     2
  9
$DIMALTTD
 70
     2
  9
$DIMTXSTY
  7
Standard
  9
$DIMAUNIT
 70
     0
  9
$DIMADEC
 70
     0
  9
$DIMALTRND
 40
0.0
  9
$DIMAZIN
 70
     0
  9
$DIMDSEP
 70
    46
  9
$DIMATFIT
 70
     3
  9
$DIMFRAC
 70
     0
  9
$DIMLDRBLK
  1

  9
$DIMLUNIT
 70
     2
  9
$DIMLWD
 70
    -2
  9
$DIMLWE
 70
    -2
  9
$DIMTMOVE
 70
     0
  9
$DIMFXL
 40
1.0
  9
$DIMFXLON
 70
     0
  9
$DIMJOGANG
 40
0.7853981633974483
  9
$DIMTFILL
 70
     0
  9
$DIMTFILLCLR
 70
     0
  9
$DIMARCSYM
 70
     0
  9
$DIMLTYPE
  6

  9
$DIMLTEX1
  6

  9
$DIMLTEX2
  6

  9
$DIMTXTDIRECTION
 70
     0
  9
$LUNITS
 70
     2
  9
$LUPREC
 70
     4
  9
$SKETCHINC
 40
0.1
  9
$FILLETRAD
 40
0.5
  9
$AUNITS
 70
     0
  9
$AUPREC
 70
     0
  9
$MENU
  1
.
  9
$ELEVATION
 40
0.0
  9
$PELEVATION
 40
0.0
  9
$THICKNESS
 40
0.0
  9
$LIMCHECK
 70
     0
  9
$CHAMFERA
 40
0.5
  9
$CHAMFERB
 40
0.5
  9
$CHAMFERC
 40
1.0
  9
$CHAMFERD
 40
0.0
  9
$SKPOLY
 70
     0
  9
$TDCREATE
 40
2458440.813028993
  9
$TDUCREATE
 40
2458441.146362327
  9
$TDUPDATE
 40
2458440.813029028
  9
$TDUUPDATE
 40
2458441.146362361
  9
$TDINDWG
 40
0.0000000116
  9
$TDUSRTIMER
 40
0.0000000116
  9
$USRTIMER
 70
     1
  9
$ANGBASE
 50
0.0
  9
$ANGDIR
 70
     0
  9
$PDMODE
 70
     0
  9
$PDSIZE
 40
0.0
  9
$PLINEWID
 40
0.0
  9
$SPLFRAME
 70
     0
  9
$SPLINETYPE
 70
     6
  9
$SPLINESEGS
 70
     8
  9
$HANDSEED
  5
4E
  9
$SURFTAB1
 70
     6
  9
$SURFTAB2
 70
     6
  9
$SURFTYPE
 70
     6
  9
$SURFU
 70
     6
  9
$SURFV
 70
     6
  9
$UCSBASE
  2

  9
$UCSNAME
  2

  9
$UCSORG
 10
0.0
 20
0.0
 30
0.0
  9
$UCSXDIR
 10
1.0
 20
0.0
 30
0.0
  9
$UCSYDIR
 10
0.0
 20
1.0
 30
0.0
  9
$UCSORTHOREF
  2

  9
$UCSORTHOVIEW
 70
     0
  9
$UCSORGTOP
 10
0.0
 20
0.0
 30
0.0
  9
$UCSORGBOTTOM
 10
0.0
 20
0.0
 30
0.0
  9
$UCSORGLEFT
 10
0.0
 20
0.0
 30
0.0
  9
$UCSORGRIGHT
 10
0.0
 20
0.0
 30
0.0
  9
$UCSORGFRONT
 10
0.0
 20
0.0
 30
0.0
  9
$UCSORGBACK
 10
0.0
 20
0.0
 30
0.0
  9
$PUCSBASE
  2

  9
$PUCSNAME
  2

  9
$PUCSORG
 10
0.0
 20
0.0
 30
0.0
  9
$PUCSXDIR
 10
1.0
 20
0.0
 30
0.0
  9
$PUCSYDIR
 10
0.0
 20
1.0
 30
0.0
  9
$PUCSORTHOREF
  2

  9
$PUCSORTHOVIEW
 70
     0
  9
$PUCSORGTOP
 10
0.0
 20
0.0
 30
0.0
  9
$PUCSORGBOTTOM
 10
0.0
 20
0.0
 30
0.0
  9
$PUCSORGLEFT
 10
0.0
 20
0.0
 30
0.0
  9
$PUCSORGRIGHT
 10
0.0
 20
0.0
 30
0.0
  9
$PUCSORGFRONT
 10
0.0
 20
0.0
 30
0.0
  9
$PUCSORGBACK
 10
0.0
 20
0.0
 30
0.0
  9
$USERI1
 70
     0
  9
$USERI2
 70
     0
  9
$USERI3
 70
     0
  9
$USERI4
 70
     0
  9
$USERI5
 70
     0
  9
$USERR1
 40
0.0
  9
$USERR2
 40
0.0
  9
$USERR3
 40
0.0
  9
$USERR4
 40
0.0
  9
$USERR5
 40
0.0
  9
$WORLDVIEW
 70
     1
  9
$SHADEDGE
 70
     3
  9
$SHADEDIF
 70
    70
  9
$TILEMODE
 70
     1
  9
$MAXACTVP
 70
    64
  9
$PINSBASE
 10
0.0
 20
0.0
 30
0.0
  9
$PLIMCHECK
 70
     0
  9
$PEXTMIN
 10
1.000000000000000E+20
 20
1.000000000000000E+20
 30
1.000000000000000E+20
  9
$PEXTMAX
 10
-1.000000000000000E+20
 20
-1.000000000000000E+20
 30
-1.000000000000000E+20
  9
$PLIMMIN
 10
0.0
 20
0.0
  9
$PLIMMAX
 10
12.0
 20
9.0
  9
$UNITMODE
 70
     0
  9
$VISRETAIN
 70
     1
  9
$PLINEGEN
 70
     0
  9
$PSLTSCALE
 70
     1
  9
$TREEDEPTH
 70
  3020
  9
$CMLSTYLE
  2
Standard
  9
$CMLJUST
 70
     0
  9
$CMLSCALE
 40
1.0
  9
$PROXYGRAPHICS
 70
     1
  9
$MEASUREMENT
 70
     0
  9
$CELWEIGHT
370
    -1
  9
$ENDCAPS
280
     0
  9
$JOINSTYLE
280
     0
  9
$LWDISPLAY
290
     1
  9
$INSUNITS
 70
     1
  9
$HYPERLINKBASE
  1

  9
$STYLESHEET
  1

  9
$XEDIT
290
     1
  9
$CEPSNTYPE
380
     0
  9
$PSTYLEMODE
290
     1
  9
$FINGERPRINTGUID
  2
{1715E349-610F-4554-A748-D981570F7E53}
  9
$VERSIONGUID
  2
{FAEB1C32-E019-11D5-929B-00C0DF256EC4}
  9
$EXTNAMES
290
     1
  9
$PSVPSCALE
 40
0.0
  9
$OLESTARTUP
290
     0
  9
$SORTENTS
280
   127
  9
$INDEXCTL
280
     0
  9
$HIDETEXT
280
     1
  9
$XCLIPFRAME
280
     2
  9
$HALOGAP
280
     0
  9
$OBSCOLOR
 70
   257
  9
$OBSLTYPE
280
     0
  9
$INTERSECTIONDISPLAY
280
     0
  9
$INTERSECTIONCOLOR
 70
   257
  9
$DIMASSOC
280
     2
  9
$PROJECTNAME
  1

  9
$CAMERADISPLAY
290
     0
  9
$LENSLENGTH
 40
50.0
  9
$CAMERAHEIGHT
 40
0.0
  9
$STEPSPERSEC
 40
2.0
  9
$STEPSIZE
 40
6.0
  9
$3DDWFPREC
 40
2.0
  9
$PSOLWIDTH
 40
0.25
  9
$PSOLHEIGHT
 40
4.0
  9
$LOFTANG1
 40
1.570796326794897
  9
$LOFTANG2
 40
1.570796326794897
  9
$LOFTMAG1
 40
0.0
  9
$LOFTMAG2
 40
0.0
  9
$LOFTPARAM
 70
     7
  9
$LOFTNORMALS
280
     1
  9
$LATITUDE
 40
37.795
  9
$LONGITUDE
 40
-122.394
  9
$NORTHDIRECTION
 40
0.0
  9
$TIMEZONE
 70
 -8000
  9
$LIGHTGLYPHDISPLAY
280
     1
  9
$TILEMODELIGHTSYNCH
280
     1
  9
$CMATERIAL
347
3C
  9
$SOLIDHIST
280
     1
  9
$SHOWHIST
280
     1
  9
$DWFFRAME
280
     2
  9
$DGNFRAME
280
     2
  9
$REALWORLDSCALE
290
     1
  9
$INTERFERECOLOR
 62
   256
  9
$CSHADOW
280
     0
  9
$SHADOWPLANELOCATION
 40
0.0
  0
ENDSEC
  0
SECTION
  2
CLASSES
  0
CLASS
  1
ACDBDICTIONARYWDFLT
  2
AcDbDictionaryWithDefault
  3
ObjectDBX Classes
 90
        0
 91
        4
280
     0
281
     0
  0
CLASS
  1
VISUALSTYLE
  2
AcDbVisualStyle
  3
ObjectDBX Classes
 90
     4095
 91
        4
280
     0
281
     0
  0
CLASS
  1
MATERIAL
  2
AcDbMaterial
  3
ObjectDBX Classes
 90
     1153
 91
        4
280
     0
281
     0
  0
CLASS
  1
SUN
  2
AcDbSun
  3
SCENEOE
 90
     1024
 91
        4
280
     0
281
     0
  0
ENDSEC
  0
SECTION
  2
TABLES
  0
TABLE
  2
VPORT
  5
8
330
0
100
AcDbSymbolTable
 70
     1
  0
VPORT
  5
29
330
8
100
AcDbSymbolTableRecord
100
AcDbViewportTableRecord
  2
*Active
 70
     0
 10
0.0
 20
0.0
 11
1.0
 21
1.0
 12
0.0
 22
0.0
 13
0.0
 23
0.0
 14
0.5
 24
0.5
 15
0.5
 25
0.5
 16
0.0
 26
0.0
 36
1.0
 17
6.001598659466645
 27
1.111111111111111
 37
0.0
 40
12.0
 41
1.000266443244441
 42
50.0
 43
0.0
 44
0.0
 50
0.0
 51
0.0
 71
     0
 72
   100
 73
     1
 74
     3
 75
     0
 76
     0
 77
     0
 78
     0
281
     0
 65
     1
110
0.0
120
0.0
130
0.0
111
1.0
121
0.0
131
0.0
112
0.0
122
1.0
132
0.0
 79
     0
146
0.0
 60
     3
 61
     5
292
     1
282
     1
141
0.0
142
0.0
 63
   250
361
3F
  0
ENDTAB
  0
TABLE
  2
LTYPE
  5
5
330
0
100
AcDbSymbolTable
 70
     1
  0
LTYPE
  5
14
330
5
100
AcDbSymbolTableRecord
100
AcDbLinetypeTableRecord
  2
ByBlock
 70
     0
  3

 72
    65
 73
     0
 40
0.0
  0
LTYPE
  5
15
330
5
100
AcDbSymbolTableRecord
100
AcDbLinetypeTableRecord
  2
ByLayer
 70
     0
  3

 72
    65
 73
     0
 40
0.0
  0
LTYPE
  5
16
330
5
100
AcDbSymbolTableRecord
100
AcDbLinetypeTableRecord
  2
Continuous
 70
     0
  3
Solid line
 72
    65
 73
     0
 40
0.0
  0
ENDTAB
  0
TABLE
  2
LAYER
  5
2
330
0
100
AcDbSymbolTable
 70
     2
  0
LAYER
  5
10
330
2
100
AcDbSymbolTableRecord
100
AcDbLayerTableRecord
  2
0
 70
     0
 62
     7
  6
Continuous
370
    -3
390
F
347
3E
  0
LAYER
  5
40
330
2
100
AcDbSymbolTableRecord
100
AcDbLayerTableRecord
  2
Layer 1
 70
     0
 62
     7
  6
Continuous
370
    -3
390
F
347
3E
  0
ENDTAB
  0
TABLE
  2
STYLE
  5
3
330
0
100
AcDbSymbolTable
 70
     1
  0
STYLE
  5
11
330
3
100
AcDbSymbolTableRecord
100
AcDbTextStyleTableRecord
  2
Standard
 70
     0
 40
0.0
 41
1.0
 50
0.0
 71
     0
 42
0.2
  3
txt
  4

  0
ENDTAB
  0
TABLE
  2
VIEW
  5
6
330
0
100
AcDbSymbolTable
 70
     0
  0
ENDTAB
  0
TABLE
  2
UCS
  5
7
330
0
100
AcDbSymbolTable
 70
     0
  0
ENDTAB
  0
TABLE
  2
APPID
  5
9
330
0
100
AcDbSymbolTable
 70
     1
  0
APPID
  5
12
330
9
100
AcDbSymbolTableRecord
100
AcDbRegAppTableRecord
  2
ACAD
 70
     0
  0
ENDTAB
  0
TABLE
  2
DIMSTYLE
  5
A
330
0
100
AcDbSymbolTable
 70
     1
100
AcDbDimStyleTable
  0
DIMSTYLE
105
27
330
A
100
AcDbSymbolTableRecord
100
AcDbDimStyleTableRecord
  2
Standard
 70
     0
178
     0
340
11
  0
ENDTAB
  0
TABLE
  2
BLOCK_RECORD
  5
1
330
0
100
AcDbSymbolTable
 70
     1
  0
BLOCK_RECORD
  5
1F
330
1
100
AcDbSymbolTableRecord
100
AcDbBlockTableRecord
  2
*Model_Space
340
22
 70
     0
280
     1
281
     0
  0
BLOCK_RECORD
  5
1B
330
1
100
AcDbSymbolTableRecord
100
AcDbBlockTableRecord
  2
*Paper_Space
340
1E
 70
     0
280
     1
281
     0
  0
BLOCK_RECORD
  5
23
330
1
100
AcDbSymbolTableRecord
100
AcDbBlockTableRecord
  2
*Paper_Space0
340
26
 70
     0
280
     1
281
     0
  0
ENDTAB
  0
ENDSEC
  0
SECTION
  2
BLOCKS
  0
BLOCK
  5
20
330
1F
100
AcDbEntity
  8
0
100
AcDbBlockBegin
  2
*Model_Space
 70
     0
 10
0.0
 20
0.0
 30
0.0
  3
*Model_Space
  1

  0
ENDBLK
  5
21
330
1F
100
AcDbEntity
  8
0
100
AcDbBlockEnd
  0
BLOCK
  5
1C
330
1B
100
AcDbEntity
 67
     1
  8
0
100
AcDbBlockBegin
  2
*Paper_Space
 70
     0
 10
0.0
 20
0.0
 30
0.0
  3
*Paper_Space
  1

  0
ENDBLK
  5
1D
330
1B
100
AcDbEntity
 67
     1
  8
0
100
AcDbBlockEnd
  0
BLOCK
  5
24
330
23
100
AcDbEntity
  8
0
100
AcDbBlockBegin
  2
*Paper_Space0
 70
     0
 10
0.0
 20
0.0
 30
0.0
  3
*Paper_Space0
  1

  0
ENDBLK
  5
25
330
23
100
AcDbEntity
  8
0
100
AcDbBlockEnd
  0
ENDSEC
  0
SECTION
  2
ENTITIES
  0
SPLINE
  5
41
330
1F
100
AcDbEntity
  8
Layer 1
370
     0
100
AcDbSpline
210
0.0
220
0.0
230
1.0
 70
    11
 71
     3
 72
    17
 73
    13
 74
     0
 42
0.0000000001
 43
0.0000000001
 12
1.0
 22
0.0
 32
0.0
 13
1.0
 23
0.0
 33
0.0
 40
0.0
 40
0.0
 40
0.0
 40
0.0
 40
1.0
 40
1.0
 40
1.0
 40
2.0
 40
2.0
 40
2.0
 40
3.0
 40
3.0
 40
3.0
 40
4.0
 40
4.0
 40
4.0
 40
4.0
 10
11.99999999838373
 20
1.111111111111111
 30
0.0
 10
11.99999999838373
 20
-2.202597387688886
 30
0.0
 10
9.313708497545525
 20
-4.888888888888888
 30
0.0
 10
5.999999999191863
 20
-4.888888888888888
 30
0.0
 10
2.686291500838188
 20
-4.888888888888888
 30
0.0
 10
0.0
 20
-2.202597387688886
 30
0.0
 10
0.0
 20
1.111111111111111
 30
0.0
 10
0.0
 20
4.424819609911108
 30
0.0
 10
2.686291500838188
 20
7.111111111111111
 30
0.0
 10
5.999999999191863
 20
7.111111111111111
 30
0.0
 10
9.313708497545525
 20
7.111111111111111
 30
0.0
 10
11.99999999838373
 20
4.424819609911108
 30
0.0
 10
11.99999999838373
 20
1.111111111111111
 30
0.0
  0
HATCH
  5
42
330
1F
100
AcDbEntity
  8
Layer 1
 62
     7
420
 16777215
100
AcDbHatch
 10
0.0
 20
0.0
 30
0.0
210
0.0
220
0.0
230
1.0
  2
SOLID
 70
     1
 71
     0
 91
        1
 92
        1
 93
        1
 72
     4
 94
        3
 73
     0
 74
     1
 95
       17
 96
       13
 40
0.0
 40
0.0
 40
0.0
 40
0.0
 40
1.0
 40
1.0
 40
1.0
 40
2.0
 40
2.0
 40
2.0
 40
3.0
 40
3.0
 40
3.0
 40
4.0
 40
4.0
 40
4.0
 40
4.0
 10
11.99999999838373
 20
1.111111111111111
 10
11.99999999838373
 20
-2.202597387688886
 10
9.313708497545525
 20
-4.888888888888888
 10
5.999999999191863
 20
-4.888888888888888
 10
2.686291500838188
 20
-4.888888888888888
 10
0.0
 20
-2.202597387688886
 10
0.0
 20
1.111111111111111
 10
0.0
 20
4.424819609911108
 10
2.686291500838188
 20
7.111111111111111
 10
5.999999999191863
 20
7.111111111111111
 10
9.313708497545525
 20
7.111111111111111
 10
11.99999999838373
 20
4.424819609911108
 10
11.99999999838373
 20
1.111111111111111
 97
        0
 97
        0
 75
     2
 76
     1
 98
        0
  0
SPLINE
  5
43
330
1F
100
AcDbEntity
  8
Layer 1
370
     0
100
AcDbSpline
210
0.0
220
0.0
230
1.0
 70
    11
 71
     3
 72
    38
 73
    34
 74
     0
 42
0.0000000001
 43
0.0000000001
 12
1.0
 22
0.0
 32
0.0
 13
1.0
 23
0.0
 33
0.0
 40
0.0
 40
0.0
 40
0.0
 40
0.0
 40
1.0
 40
1.0
 40
1.0
 40
2.0
 40
2.0
 40
2.0
 40
3.0
 40
3.0
 40
3.0
 40
4.0
 40
4.0
 40
4.0
 40
5.0
 40
5.0
 40
5.0
 40
6.0
 40
6.0
 40
6.0
 40
7.0
 40
7.0
 40
7.0
 40
8.0
 40
8.0
 40
8.0
 40
9.0
 40
9.0
 40
9.0
 40
10.0
 40
10.0
 40
10.0
 40
11.0
 40
11.0
 40
11.0
 40
11.0
 10
5.329427434508211
 20
-4.780825124240159
 30
0.0
 10
5.14706130333967
 20
-4.747822385543132
 30
0.0
 10
4.963749640648731
 20
-4.719308297600517
 30
0.0
 10
4.782481681518068
 20
-4.681095989094325
 30
0.0
 10
3.538536452091218
 20
-4.418862582531574
 30
0.0
 10
2.446227579352391
 20
-3.751615411499011
 30
0.0
 10
1.673115064479804
 20
-2.895906084943741
 30
0.0
 10
3.54141443053124
 20
-0.6650760485858629
 30
0.0
 10
5.468561213502122
 20
1.507514284024056
 30
0.0
 10
7.840089819048747
 20
3.255545369119293
 30
0.0
 10
8.099384970661479
 20
2.936127247675181
 30
0.0
 10
8.35742001334385
 20
2.618261921100561
 30
0.0
 10
8.601560270881185
 20
2.317513024182896
 30
0.0
 10
8.434257269549006
 20
2.126881514066579
 30
0.0
 10
8.260797667469534
 20
1.956795597248022
 30
0.0
 10
8.119962351571505
 20
1.763000919831054
 30
0.0
 10
7.830467169035071
 20
1.364642761644038
 30
0.0
 10
7.653408969343849
 20
0.9090339142861062
 30
0.0
 10
7.534685836237208
 20
0.4358123306839287
 30
0.0
 10
7.376180206533136
 20
-0.1959820564443615
 30
0.0
 10
7.236690766141843
 20
-0.8327509050046349
 30
0.0
 10
7.099569802745387
 20
-1.469651702143968
 30
0.0
 10
6.954812615216875
 20
-2.142021476876759
 30
0.0
 10
6.825714125429461
 20
-2.81815658424398
 30
0.0
 10
6.568111514226707
 20
-3.459860309662442
 30
0.0
 10
6.401973258988189
 20
-3.873723025659451
 30
0.0
 10
6.189150996699305
 20
-4.258850939727103
 30
0.0
 10
5.831915812720076
 20
-4.541757090036526
 30
0.0
 10
5.718376459473069
 20
-4.63167284949514
 30
0.0
 10
5.5890836454146
 20
-4.701697960421395
 30
0.0
 10
5.466999422138668
 20
-4.780825124240159
 30
0.0
 10
5.421141893006379
 20
-4.780825124240159
 30
0.0
 10
5.375284963640397
 20
-4.780825124240159
 30
0.0
 10
5.329427434508211
 20
-4.780825124240159
 30
0.0
  0
SPLINE
  5
44
330
1F
100
AcDbEntity
  8
Layer 1
370
     0
100
AcDbSpline
210
0.0
220
0.0
230
1.0
 70
    11
 71
     3
 72
    35
 73
    31
 74
     0
 42
0.0000000001
 43
0.0000000001
 12
1.0
 22
0.0
 32
0.0
 13
1.0
 23
0.0
 33
0.0
 40
0.0
 40
0.0
 40
0.0
 40
0.0
 40
1.0
 40
1.0
 40
1.0
 40
2.0
 40
2.0
 40
2.0
 40
3.0
 40
3.0
 40
3.0
 40
4.0
 40
4.0
 40
4.0
 40
5.0
 40
5.0
 40
5.0
 40
6.0
 40
6.0
 40
6.0
 40
7.0
 40
7.0
 40
7.0
 40
8.0
 40
8.0
 40
8.0
 40
9.0
 40
9.0
 40
9.0
 40
10.0
 40
10.0
 40
10.0
 40
10.0
 10
0.1213450292397687
 20
0.7613606631595707
 30
0.0
 10
0.1333419805410535
 20
0.6610863404755492
 30
0.0
 10
0.1464599348265791
 20
0.5609313712790885
 30
0.0
 10
0.1571639681082186
 20
0.4605191023533987
 30
0.0
 10
0.2749111128115879
 20
-0.644035648116566
 30
0.0
 10
0.6791807547690748
 20
-1.633554628499269
 30
0.0
 10
1.351799732386528
 20
-2.51522243892666
 30
0.0
 10
1.40260008527999
 20
-2.581811488899929
 30
0.0
 10
1.457314063017798
 20
-2.645414902388009
 30
0.0
 10
1.522008901173257
 20
-2.72490552456558
 30
0.0
 10
3.328985015148229
 20
-0.441627127549686
 30
0.0
 10
5.345020757725933
 20
1.61769254710167
 30
0.0
 10
7.546250529428713
 20
3.471239312302335
 30
0.0
 10
7.261707616972217
 20
3.758887814497661
 30
0.0
 10
6.988749789760353
 20
4.034824680765799
 30
0.0
 10
6.712761343593178
 20
4.313824853250834
 30
0.0
 10
6.491586736247477
 20
4.120112643695771
 30
0.0
 10
6.238667100070162
 20
3.965223004825197
 30
0.0
 10
5.965187476204568
 20
3.843175067408513
 30
0.0
 10
5.354271552653194
 20
3.570537515384103
 30
0.0
 10
4.705028765238214
 20
3.431550979009065
 30
0.0
 10
4.054720193163929
 20
3.297215030280894
 30
0.0
 10
3.315172397981971
 20
3.14444436563738
 30
0.0
 10
2.569803871163079
 20
3.016096183451964
 30
0.0
 10
1.853083030223236
 20
2.768715688648449
 30
0.0
 10
1.125214933414794
 20
2.517487693231715
 30
0.0
 10
0.4921706708680504
 20
2.142873681852987
 30
0.0
 10
0.1213450456396635
 20
1.42956746022191
 30
0.0
 10
0.1213450456396635
 20
1.206831661279036
 30
0.0
 10
0.1213450456396635
 20
0.9840964621023937
 30
0.0
 10
0.1213450292397687
 20
0.7613606631595707
 30
0.0
  0
SPLINE
  5
45
330
1F
100
AcDbEntity
  8
Layer 1
370
     0
100
AcDbSpline
210
0.0
220
0.0
230
1.0
 70
    11
 71
     3
 72
    50
 73
    46
 74
     0
 42
0.0000000001
 43
0.0000000001
 12
1.0
 22
0.0
 32
0.0
 13
1.0
 23
0.0
 33
0.0
 40
0.0
 40
0.0
 40
0.0
 40
0.0
 40
1.0
 40
1.0
 40
1.0
 40
2.0
 40
2.0
 40
2.0
 40
3.0
 40
3.0
 40
3.0
 40
4.0
 40
4.0
 40
4.0
 40
5.0
 40
5.0
 40
5.0
 40
6.0
 40
6.0
 40
6.0
 40
7.0
 40
7.0
 40
7.0
 40
8.0
 40
8.0
 40
8.0
 40
9.0
 40
9.0
 40
9.0
 40
10.0
 40
10.0
 40
10.0
 40
11.0
 40
11.0
 40
11.0
 40
12.0
 40
12.0
 40
12.0
 40
13.0
 40
13.0
 40
13.0
 40
14.0
 40
14.0
 40
14.0
 40
15.0
 40
15.0
 40
15.0
 40
15.0
 10
6.213818783561313
 20
-4.780825124240159
 30
0.0
 10
6.398969029748716
 20
-4.762174792351161
 30
0.0
 10
6.584681256929772
 20
-4.747894357495347
 30
0.0
 10
6.769178357650717
 20
-4.724166404376344
 30
0.0
 10
8.015029644279188
 20
-4.563934047584881
 30
0.0
 10
9.095707099829218
 20
-4.048623266316225
 30
0.0
 10
10.02107328082174
 20
-3.203186736409836
 30
0.0
 10
10.10024242827932
 20
-3.130856123947044
 30
0.0
 10
10.19715805985902
 20
-3.059862990263279
 30
0.0
 10
10.23777183250473
 20
-2.967186506670133
 30
0.0
 10
10.32221772359354
 20
-2.774490601057273
 30
0.0
 10
10.39646638858342
 20
-2.571824780761163
 30
0.0
 10
10.43536602923336
 20
-2.365791272866798
 30
0.0
 10
10.52165440229944
 20
-1.908753182490702
 30
0.0
 10
10.46535674172941
 20
-1.452464200184118
 30
0.0
 10
10.36827377536072
 20
-1.002363006470988
 30
0.0
 10
10.20418012333201
 20
-0.2415726895871002
 30
0.0
 10
9.911718496830947
 20
0.4697243150440802
 30
0.0
 10
9.514877747303546
 20
1.137712197418422
 30
0.0
 10
9.350978419545779
 20
1.413598083553678
 30
0.0
 10
9.170721666344004
 20
1.679003054144864
 30
0.0
 10
8.93088893014788
 20
1.897908145930084
 30
0.0
 10
8.842344836145633
 20
1.978726650626337
 30
0.0
 10
8.738381351143364
 20
2.011667313514484
 30
0.0
 10
8.634898878688595
 20
1.953761379695127
 30
0.0
 10
8.5199476756453
 20
1.88943764691842
 30
0.0
 10
8.402130789370554
 20
1.816106024553265
 30
0.0
 10
8.314216449950258
 20
1.72038032925055
 30
0.0
 10
8.0953527420376
 20
1.482069200077932
 30
0.0
 10
7.984084103883636
 20
1.182475752876725
 30
0.0
 10
7.884338775048516
 20
0.8800010285211152
 30
0.0
 10
7.652294603616761
 20
0.1763324510604889
 30
0.0
 10
7.529680786725546
 20
-0.5534091656296216
 30
0.0
 10
7.374402499312989
 20
-1.275214675053298
 30
0.0
 10
7.219680794997632
 20
-1.994435791625442
 30
0.0
 10
7.066321759644602
 20
-2.714058751597678
 30
0.0
 10
6.802263864092689
 20
-3.403190794005771
 30
0.0
 10
6.607497565320576
 20
-3.91148670899679
 30
0.0
 10
6.362293922189009
 20
-4.389765521775871
 30
0.0
 10
5.925133285487491
 20
-4.740741544975789
 30
0.0
 10
5.913388062649119
 20
-4.750171070251099
 30
0.0
 10
5.907818633078705
 20
-4.767291998155062
 30
0.0
 10
5.899368526120194
 20
-4.780825124240159
 30
0.0
 10
6.004185478522635
 20
-4.780825124240159
 30
0.0
 10
6.109001831158821
 20
-4.780825124240159
 30
0.0
 10
6.213818783561313
 20
-4.780825124240159
 30
0.0
  0
SPLINE
  5
46
330
1F
100
AcDbEntity
  8
Layer 1
370
     0
100
AcDbSpline
210
0.0
220
0.0
230
1.0
 70
    11
 71
     3
 72
    41
 73
    37
 74
     0
 42
0.0000000001
 43
0.0000000001
 12
1.0
 22
0.0
 32
0.0
 13
1.0
 23
0.0
 33
0.0
 40
0.0
 40
0.0
 40
0.0
 40
0.0
 40
1.0
 40
1.0
 40
1.0
 40
2.0
 40
2.0
 40
2.0
 40
3.0
 40
3.0
 40
3.0
 40
4.0
 40
4.0
 40
4.0
 40
5.0
 40
5.0
 40
5.0
 40
6.0
 40
6.0
 40
6.0
 40
7.0
 40
7.0
 40
7.0
 40
8.0
 40
8.0
 40
8.0
 40
9.0
 40
9.0
 40
9.0
 40
10.0
 40
10.0
 40
10.0
 40
11.0
 40
11.0
 40
11.0
 40
12.0
 40
12.0
 40
12.0
 40
12.0
 10
0.6585570044294273
 20
2.434979946839904
 30
0.0
 10
1.028701595059728
 20
2.734075588038119
 30
0.0
 10
1.459198978458466
 20
2.913693590163828
 30
0.0
 10
1.905164933691203
 20
3.060393720519515
 30
0.0
 10
2.736368260335439
 20
3.333816666472684
 30
0.0
 10
3.598184706920897
 20
3.480371353508291
 30
0.0
 10
4.448862294365679
 20
3.673923125586473
 30
0.0
 10
4.903555598514609
 20
3.777378008792892
 30
0.0
 10
5.351999638027564
 20
3.910704550890993
 30
0.0
 10
5.798760733390862
 20
4.045475929930161
 30
0.0
 10
5.986310644419063
 20
4.102052181932018
 30
0.0
 10
6.163750895223327
 20
4.199358861118855
 30
0.0
 10
6.286430686404047
 20
4.361160806235223
 30
0.0
 10
6.424537665546141
 20
4.543308322598805
 30
0.0
 10
6.414941405248252
 20
4.626965670985984
 30
0.0
 10
6.289941718140577
 20
4.758820536602443
 30
0.0
 10
6.193738608887998
 20
4.860299489836936
 30
0.0
 10
6.090124187854118
 20
4.958492773510316
 30
0.0
 10
5.976130211775499
 20
5.038716160126543
 30
0.0
 10
5.484005194919089
 20
5.385050892056774
 30
0.0
 10
4.935711167357087
 20
5.612300082112597
 30
0.0
 10
4.358778300468682
 20
5.772444273262509
 30
0.0
 10
3.886415582163181
 20
5.903562101105586
 30
0.0
 10
3.407042495826961
 20
5.984315231278591
 30
0.0
 10
2.914202857461406
 20
5.930279364278274
 30
0.0
 10
2.732704887966734
 20
5.910379569310231
 30
0.0
 10
2.560668081417942
 20
5.879529541692869
 30
0.0
 10
2.405639896539343
 20
5.756446257754937
 30
0.0
 10
1.819445139047768
 20
5.291042027697964
 30
0.0
 10
1.329590912255033
 20
4.743367858574629
 30
0.0
 10
0.9472591835025747
 20
4.100649628512833
 30
0.0
 10
0.5201531784696903
 20
3.382663730570913
 30
0.0
 10
0.2602905542533765
 20
2.607339277699667
 30
0.0
 10
0.1692418831700403
 20
1.773589193537267
 30
0.0
 10
0.26909129956669
 20
2.041051962196005
 30
0.0
 10
0.4380702915084763
 20
2.256816078032469
 30
0.0
 10
0.6585570044294273
 20
2.434979946839904
 30
0.0
  0
SPLINE
  5
47
330
1F
100
AcDbEntity
  8
Layer 1
370
     0
100
AcDbSpline
210
0.0
220
0.0
230
1.0
 70
    11
 71
     3
 72
    38
 73
    34
 74
     0
 42
0.0000000001
 43
0.0000000001
 12
1.0
 22
0.0
 32
0.0
 13
1.0
 23
0.0
 33
0.0
 40
0.0
 40
0.0
 40
0.0
 40
0.0
 40
1.0
 40
1.0
 40
1.0
 40
2.0
 40
2.0
 40
2.0
 40
3.0
 40
3.0
 40
3.0
 40
4.0
 40
4.0
 40
4.0
 40
5.0
 40
5.0
 40
5.0
 40
6.0
 40
6.0
 40
6.0
 40
7.0
 40
7.0
 40
7.0
 40
8.0
 40
8.0
 40
8.0
 40
9.0
 40
9.0
 40
9.0
 40
10.0
 40
10.0
 40
10.0
 40
11.0
 40
11.0
 40
11.0
 40
11.0
 10
10.5709791802306
 20
-2.652643885223698
 30
0.0
 10
10.94155676462156
 20
-2.202612264397658
 30
0.0
 10
11.23971017301169
 20
-1.708744326764519
 30
0.0
 10
11.46244537218834
 20
-1.170065452137982
 30
0.0
 10
11.81722751212891
 20
-0.3120272331616181
 30
0.0
 10
11.96301749717206
 20
0.5803488042255746
 30
0.0
 10
11.89427588606062
 20
1.506773572682278
 30
0.0
 10
11.89124826593671
 20
1.547564276377241
 30
0.0
 10
11.87758199173997
 20
1.589895779616275
 30
0.0
 10
11.85944745884199
 20
1.626890562597181
 30
0.0
 10
11.4926711930616
 20
2.375103181061831
 30
0.0
 10
10.62126358419151
 20
2.77191634134091
 30
0.0
 10
9.82783878509968
 20
2.678855407569623
 30
0.0
 10
9.600722293330767
 20
2.652216788748951
 30
0.0
 10
9.387573758191694
 20
2.581019434650771
 30
0.0
 10
9.21144159761924
 20
2.425218151051846
 30
0.0
 10
9.080958847283883
 20
2.309797031137123
 30
0.0
 10
9.064161193398679
 20
2.245981900156165
 30
0.0
 10
9.148924360843667
 20
2.093862581680368
 30
0.0
 10
9.242739200814588
 20
1.925497394286468
 30
0.0
 10
9.342944550377625
 20
1.760340356663493
 30
0.0
 10
9.447407640681577
 20
1.598326094288015
 30
0.0
 10
9.782750156323774
 20
1.078232776793382
 30
0.0
 10
10.09880898689731
 20
0.5480076077229417
 30
0.0
 10
10.32766120224755
 20
-0.0294989356014462
 30
0.0
 10
10.54035031642482
 20
-0.5662183738284562
 30
0.0
 10
10.67281349497921
 20
-1.119464971353535
 30
0.0
 10
10.66766750039445
 20
-1.700431566281496
 30
0.0
 10
10.66469985689731
 20
-2.035556366768181
 30
0.0
 10
10.61485208278001
 20
-2.364054949519085
 30
0.0
 10
10.53215271106531
 20
-2.694821248531727
 30
0.0
 10
10.5451304535857
 20
-2.68079151597615
 30
0.0
 10
10.55885070674657
 20
-2.667372345482136
 30
0.0
 10
10.5709791802306
 20
-2.652643885223698
 30
0.0
  0
SPLINE
  5
48
330
1F
100
AcDbEntity
  8
Layer 1
370
     0
100
AcDbSpline
210
0.0
220
0.0
230
1.0
 70
    11
 71
     3
 72
    23
 73
    19
 74
     0
 42
0.0000000001
 43
0.0000000001
 12
1.0
 22
0.0
 32
0.0
 13
1.0
 23
0.0
 33
0.0
 40
0.0
 40
0.0
 40
0.0
 40
0.0
 40
1.0
 40
1.0
 40
1.0
 40
2.0
 40
2.0
 40
2.0
 40
3.0
 40
3.0
 40
3.0
 40
4.0
 40
4.0
 40
4.0
 40
5.0
 40
5.0
 40
5.0
 40
6.0
 40
6.0
 40
6.0
 40
6.0
 10
10.30962982914783
 20
5.12335877455151
 30
0.0
 10
9.952519996318744
 20
4.955027024127124
 30
0.0
 10
8.318277467355049
 20
3.754694848513812
 30
0.0
 10
8.02398955256606
 20
3.443033204338639
 30
0.0
 10
8.280396829595423
 20
3.120367348549962
 30
0.0
 10
8.537396075931913
 20
2.796955983289409
 30
0.0
 10
8.794803163331052
 20
2.47303121810296
 30
0.0
 10
9.17187861547619
 20
2.665903155115681
 30
0.0
 10
9.548377692237182
 20
2.821328385264097
 30
0.0
 10
9.959105429948169
 20
2.876382430476219
 30
0.0
 10
10.50266940083267
 20
2.949242036787912
 30
0.0
 10
10.98878116107997
 20
2.822305704398812
 30
0.0
 10
11.38675606862128
 20
2.436309028891148
 30
0.0
 10
11.5566650543906
 20
2.271513950211228
 30
0.0
 10
11.69967572254495
 20
2.078985979153534
 30
0.0
 10
11.84785757546724
 20
1.907233311874557
 30
0.0
 10
11.73505593473068
 20
2.970563727637277
 30
0.0
 10
11.17045396244192
 20
4.240348387331854
 30
0.0
 10
10.30962982914783
 20
5.12335877455151
 30
0.0
  0
SPLINE
  5
49
330
1F
100
AcDbEntity
  8
Layer 1
370
     0
100
AcDbSpline
210
0.0
220
0.0
230
1.0
 70
    11
 71
     3
 72
    41
 73
    37
 74
     0
 42
0.0000000001
 43
0.0000000001
 12
1.0
 22
0.0
 32
0.0
 13
1.0
 23
0.0
 33
0.0
 40
0.0
 40
0.0
 40
0.0
 40
0.0
 40
1.0
 40
1.0
 40
1.0
 40
2.0
 40
2.0
 40
2.0
 40
3.0
 40
3.0
 40
3.0
 40
4.0
 40
4.0
 40
4.0
 40
5.0
 40
5.0
 40
5.0
 40
6.0
 40
6.0
 40
6.0
 40
7.0
 40
7.0
 40
7.0
 40
8.0
 40
8.0
 40
8.0
 40
9.0
 40
9.0
 40
9.0
 40
10.0
 40
10.0
 40
10.0
 40
11.0
 40
11.0
 40
11.0
 40
12.0
 40
12.0
 40
12.0
 40
12.0
 10
2.83519204829871
 20
6.047541616696081
 30
0.0
 10
3.174611775034943
 20
6.047541616696081
 30
0.0
 10
3.514897564263012
 20
6.062889785451589
 30
0.0
 10
3.853240110780866
 20
6.043798775296787
 30
0.0
 10
4.314120603756843
 20
6.017793509655777
 30
0.0
 10
4.752666400655698
 20
5.887578330046962
 30
0.0
 10
5.174630159642927
 20
5.700317281447925
 30
0.0
 10
5.586711569822228
 20
5.517441948717381
 30
0.0
 10
5.955349510100455
 20
5.262739207423465
 30
0.0
 10
6.328829363465173
 20
5.015229912813715
 30
0.0
 10
6.418261111545057
 20
4.955963259272443
 30
0.0
 10
6.514511602332807
 20
4.905619328509374
 30
0.0
 10
6.611719320085386
 20
4.859869607363913
 30
0.0
 10
6.69617840603213
 20
4.820120097911235
 30
0.0
 10
6.779160867425591
 20
4.827643416043227
 30
0.0
 10
6.861512974470643
 20
4.883952172289279
 30
0.0
 10
7.183489099050373
 20
5.104103878263786
 30
0.0
 10
7.360068685259243
 20
5.406662419955485
 30
0.0
 10
7.37613822289437
 20
5.795609420709272
 30
0.0
 10
7.394378914421824
 20
6.237078103547471
 30
0.0
 10
7.187328202935835
 20
6.587503953652154
 30
0.0
 10
6.905798516212876
 20
6.903724205694061
 30
0.0
 10
6.892388342212875
 20
6.918785789258006
 30
0.0
 10
6.867495643000135
 20
6.928422683720605
 30
0.0
 10
6.846648967035485
 20
6.931366214739455
 30
0.0
 10
6.275694270429565
 20
7.011983891449214
 30
0.0
 10
5.704133809892255
 20
7.009560535840819
 30
0.0
 10
5.134590363316268
 20
6.924440404381206
 30
0.0
 10
4.588684005269695
 20
6.842852943100524
 30
0.0
 10
4.061857711643622
 20
6.688699667266241
 30
0.0
 10
3.562390955892927
 20
6.452726614435682
 30
0.0
 10
3.309922044066474
 20
6.333447647939591
 30
0.0
 10
3.067648559040296
 20
6.192589091098625
 30
0.0
 10
2.820764970590239
 20
6.061487531915569
 30
0.0
 10
2.825574196415232
 20
6.056838893509065
 30
0.0
 10
2.830383122356984
 20
6.05219025510256
 30
0.0
 10
2.83519204829871
 20
6.047541616696081
 30
0.0
  0
SPLINE
  5
4A
330
1F
100
AcDbEntity
  8
Layer 1
370
     0
100
AcDbSpline
210
0.0
220
0.0
230
1.0
 70
    11
 71
     3
 72
    17
 73
    13
 74
     0
 42
0.0000000001
 43
0.0000000001
 12
1.0
 22
0.0
 32
0.0
 13
1.0
 23
0.0
 33
0.0
 40
0.0
 40
0.0
 40
0.0
 40
0.0
 40
1.0
 40
1.0
 40
1.0
 40
2.0
 40
2.0
 40
2.0
 40
3.0
 40
3.0
 40
3.0
 40
4.0
 40
4.0
 40
4.0
 40
4.0
 10
10.15336372669076
 20
5.292462574105153
 30
0.0
 10
9.297799543572511
 20
6.118432415260258
 30
0.0
 10
8.311357963914057
 20
6.643328286180122
 30
0.0
 10
7.134005982824343
 20
6.883371268567392
 30
0.0
 10
7.779939259969094
 20
6.004092149132374
 30
0.0
 10
7.697936816658587
 20
5.217010777980527
 30
0.0
 10
6.898163491613381
 20
4.51158758430102
 30
0.0
 10
7.205724833693112
 20
4.223880604894399
 30
0.0
 10
7.499514342712928
 20
3.949056904820862
 30
0.0
 10
7.798445647953586
 20
3.669423079273075
 30
0.0
 10
8.554641155453485
 20
4.255860142337117
 30
0.0
 10
9.267679281562499
 20
4.886123026298542
 30
0.0
 10
10.15336372669076
 20
5.292462574105153
 30
0.0
  0
HATCH
  5
4B
330
1F
100
AcDbEntity
  8
Layer 1
 62
    32
420
 13855751
100
AcDbHatch
 10
0.0
 20
0.0
 30
0.0
210
0.0
220
0.0
230
1.0
  2
SOLID
 70
     1
 71
     0
 91
        8
 92
        1
 93
        1
 72
     4
 94
        3
 73
     0
 74
     1
 95
       38
 96
       34
 40
0.0
 40
0.0
 40
0.0
 40
0.0
 40
1.0
 40
1.0
 40
1.0
 40
2.0
 40
2.0
 40
2.0
 40
3.0
 40
3.0
 40
3.0
 40
4.0
 40
4.0
 40
4.0
 40
5.0
 40
5.0
 40
5.0
 40
6.0
 40
6.0
 40
6.0
 40
7.0
 40
7.0
 40
7.0
 40
8.0
 40
8.0
 40
8.0
 40
9.0
 40
9.0
 40
9.0
 40
10.0
 40
10.0
 40
10.0
 40
11.0
 40
11.0
 40
11.0
 40
11.0
 10
5.329427434508211
 20
-4.780825124240159
 10
5.14706130333967
 20
-4.747822385543132
 10
4.963749640648731
 20
-4.719308297600517
 10
4.782481681518068
 20
-4.681095989094325
 10
3.538536452091218
 20
-4.418862582531574
 10
2.446227579352391
 20
-3.751615411499011
 10
1.673115064479804
 20
-2.895906084943741
 10
3.54141443053124
 20
-0.6650760485858629
 10
5.468561213502122
 20
1.507514284024056
 10
7.840089819048747
 20
3.255545369119293
 10
8.099384970661479
 20
2.936127247675181
 10
8.35742001334385
 20
2.618261921100561
 10
8.601560270881185
 20
2.317513024182896
 10
8.434257269549006
 20
2.126881514066579
 10
8.260797667469534
 20
1.956795597248022
 10
8.119962351571505
 20
1.763000919831054
 10
7.830467169035071
 20
1.364642761644038
 10
7.653408969343849
 20
0.9090339142861062
 10
7.534685836237208
 20
0.4358123306839287
 10
7.376180206533136
 20
-0.1959820564443615
 10
7.236690766141843
 20
-0.8327509050046349
 10
7.099569802745387
 20
-1.469651702143968
 10
6.954812615216875
 20
-2.142021476876759
 10
6.825714125429461
 20
-2.81815658424398
 10
6.568111514226707
 20
-3.459860309662442
 10
6.401973258988189
 20
-3.873723025659451
 10
6.189150996699305
 20
-4.258850939727103
 10
5.831915812720076
 20
-4.541757090036526
 10
5.718376459473069
 20
-4.63167284949514
 10
5.5890836454146
 20
-4.701697960421395
 10
5.466999422138668
 20
-4.780825124240159
 10
5.421141893006379
 20
-4.780825124240159
 10
5.375284963640397
 20
-4.780825124240159
 10
5.329427434508211
 20
-4.780825124240159
 97
        0
 97
        0
 92
        1
 93
        1
 72
     4
 94
        3
 73
     0
 74
     1
 95
       35
 96
       31
 40
0.0
 40
0.0
 40
0.0
 40
0.0
 40
1.0
 40
1.0
 40
1.0
 40
2.0
 40
2.0
 40
2.0
 40
3.0
 40
3.0
 40
3.0
 40
4.0
 40
4.0
 40
4.0
 40
5.0
 40
5.0
 40
5.0
 40
6.0
 40
6.0
 40
6.0
 40
7.0
 40
7.0
 40
7.0
 40
8.0
 40
8.0
 40
8.0
 40
9.0
 40
9.0
 40
9.0
 40
10.0
 40
10.0
 40
10.0
 40
10.0
 10
0.1213450292397687
 20
0.7613606631595707
 10
0.1333419805410535
 20
0.6610863404755492
 10
0.1464599348265791
 20
0.5609313712790885
 10
0.1571639681082186
 20
0.4605191023533987
 10
0.2749111128115879
 20
-0.644035648116566
 10
0.6791807547690748
 20
-1.633554628499269
 10
1.351799732386528
 20
-2.51522243892666
 10
1.40260008527999
 20
-2.581811488899929
 10
1.457314063017798
 20
-2.645414902388009
 10
1.522008901173257
 20
-2.72490552456558
 10
3.328985015148229
 20
-0.441627127549686
 10
5.345020757725933
 20
1.61769254710167
 10
7.546250529428713
 20
3.471239312302335
 10
7.261707616972217
 20
3.758887814497661
 10
6.988749789760353
 20
4.034824680765799
 10
6.712761343593178
 20
4.313824853250834
 10
6.491586736247477
 20
4.120112643695771
 10
6.238667100070162
 20
3.965223004825197
 10
5.965187476204568
 20
3.843175067408513
 10
5.354271552653194
 20
3.570537515384103
 10
4.705028765238214
 20
3.431550979009065
 10
4.054720193163929
 20
3.297215030280894
 10
3.315172397981971
 20
3.14444436563738
 10
2.569803871163079
 20
3.016096183451964
 10
1.853083030223236
 20
2.768715688648449
 10
1.125214933414794
 20
2.517487693231715
 10
0.4921706708680504
 20
2.142873681852987
 10
0.1213450456396635
 20
1.42956746022191
 10
0.1213450456396635
 20
1.206831661279036
 10
0.1213450456396635
 20
0.9840964621023937
 10
0.1213450292397687
 20
0.7613606631595707
 97
        0
 97
        0
 92
        1
 93
        1
 72
     4
 94
        3
 73
     0
 74
     1
 95
       50
 96
       46
 40
0.0
 40
0.0
 40
0.0
 40
0.0
 40
1.0
 40
1.0
 40
1.0
 40
2.0
 40
2.0
 40
2.0
 40
3.0
 40
3.0
 40
3.0
 40
4.0
 40
4.0
 40
4.0
 40
5.0
 40
5.0
 40
5.0
 40
6.0
 40
6.0
 40
6.0
 40
7.0
 40
7.0
 40
7.0
 40
8.0
 40
8.0
 40
8.0
 40
9.0
 40
9.0
 40
9.0
 40
10.0
 40
10.0
 40
10.0
 40
11.0
 40
11.0
 40
11.0
 40
12.0
 40
12.0
 40
12.0
 40
13.0
 40
13.0
 40
13.0
 40
14.0
 40
14.0
 40
14.0
 40
15.0
 40
15.0
 40
15.0
 40
15.0
 10
6.213818783561313
 20
-4.780825124240159
 10
6.398969029748716
 20
-4.762174792351161
 10
6.584681256929772
 20
-4.747894357495347
 10
6.769178357650717
 20
-4.724166404376344
 10
8.015029644279188
 20
-4.563934047584881
 10
9.095707099829218
 20
-4.048623266316225
 10
10.02107328082174
 20
-3.203186736409836
 10
10.10024242827932
 20
-3.130856123947044
 10
10.19715805985902
 20
-3.059862990263279
 10
10.23777183250473
 20
-2.967186506670133
 10
10.32221772359354
 20
-2.774490601057273
 10
10.39646638858342
 20
-2.571824780761163
 10
10.43536602923336
 20
-2.365791272866798
 10
10.52165440229944
 20
-1.908753182490702
 10
10.46535674172941
 20
-1.452464200184118
 10
10.36827377536072
 20
-1.002363006470988
 10
10.20418012333201
 20
-0.2415726895871002
 10
9.911718496830947
 20
0.4697243150440802
 10
9.514877747303546
 20
1.137712197418422
 10
9.350978419545779
 20
1.413598083553678
 10
9.170721666344004
 20
1.679003054144864
 10
8.93088893014788
 20
1.897908145930084
 10
8.842344836145633
 20
1.978726650626337
 10
8.738381351143364
 20
2.011667313514484
 10
8.634898878688595
 20
1.953761379695127
 10
8.5199476756453
 20
1.88943764691842
 10
8.402130789370554
 20
1.816106024553265
 10
8.314216449950258
 20
1.72038032925055
 10
8.0953527420376
 20
1.482069200077932
 10
7.984084103883636
 20
1.182475752876725
 10
7.884338775048516
 20
0.8800010285211152
 10
7.652294603616761
 20
0.1763324510604889
 10
7.529680786725546
 20
-0.5534091656296216
 10
7.374402499312989
 20
-1.275214675053298
 10
7.219680794997632
 20
-1.994435791625442
 10
7.066321759644602
 20
-2.714058751597678
 10
6.802263864092689
 20
-3.403190794005771
 10
6.607497565320576
 20
-3.91148670899679
 10
6.362293922189009
 20
-4.389765521775871
 10
5.925133285487491
 20
-4.740741544975789
 10
5.913388062649119
 20
-4.750171070251099
 10
5.907818633078705
 20
-4.767291998155062
 10
5.899368526120194
 20
-4.780825124240159
 10
6.004185478522635
 20
-4.780825124240159
 10
6.109001831158821
 20
-4.780825124240159
 10
6.213818783561313
 20
-4.780825124240159
 97
        0
 97
        0
 92
        1
 93
        1
 72
     4
 94
        3
 73
     0
 74
     1
 95
       41
 96
       37
 40
0.0
 40
0.0
 40
0.0
 40
0.0
 40
1.0
 40
1.0
 40
1.0
 40
2.0
 40
2.0
 40
2.0
 40
3.0
 40
3.0
 40
3.0
 40
4.0
 40
4.0
 40
4.0
 40
5.0
 40
5.0
 40
5.0
 40
6.0
 40
6.0
 40
6.0
 40
7.0
 40
7.0
 40
7.0
 40
8.0
 40
8.0
 40
8.0
 40
9.0
 40
9.0
 40
9.0
 40
10.0
 40
10.0
 40
10.0
 40
11.0
 40
11.0
 40
11.0
 40
12.0
 40
12.0
 40
12.0
 40
12.0
 10
0.6585570044294273
 20
2.434979946839904
 10
1.028701595059728
 20
2.734075588038119
 10
1.459198978458466
 20
2.913693590163828
 10
1.905164933691203
 20
3.060393720519515
 10
2.736368260335439
 20
3.333816666472684
 10
3.598184706920897
 20
3.480371353508291
 10
4.448862294365679
 20
3.673923125586473
 10
4.903555598514609
 20
3.777378008792892
 10
5.351999638027564
 20
3.910704550890993
 10
5.798760733390862
 20
4.045475929930161
 10
5.986310644419063
 20
4.102052181932018
 10
6.163750895223327
 20
4.199358861118855
 10
6.286430686404047
 20
4.361160806235223
 10
6.424537665546141
 20
4.543308322598805
 10
6.414941405248252
 20
4.626965670985984
 10
6.289941718140577
 20
4.758820536602443
 10
6.193738608887998
 20
4.860299489836936
 10
6.090124187854118
 20
4.958492773510316
 10
5.976130211775499
 20
5.038716160126543
 10
5.484005194919089
 20
5.385050892056774
 10
4.935711167357087
 20
5.612300082112597
 10
4.358778300468682
 20
5.772444273262509
 10
3.886415582163181
 20
5.903562101105586
 10
3.407042495826961
 20
5.984315231278591
 10
2.914202857461406
 20
5.930279364278274
 10
2.732704887966734
 20
5.910379569310231
 10
2.560668081417942
 20
5.879529541692869
 10
2.405639896539343
 20
5.756446257754937
 10
1.819445139047768
 20
5.291042027697964
 10
1.329590912255033
 20
4.743367858574629
 10
0.9472591835025747
 20
4.100649628512833
 10
0.5201531784696903
 20
3.382663730570913
 10
0.2602905542533765
 20
2.607339277699667
 10
0.1692418831700403
 20
1.773589193537267
 10
0.26909129956669
 20
2.041051962196005
 10
0.4380702915084763
 20
2.256816078032469
 10
0.6585570044294273
 20
2.434979946839904
 97
        0
 97
        0
 92
        1
 93
        1
 72
     4
 94
        3
 73
     0
 74
     1
 95
       38
 96
       34
 40
0.0
 40
0.0
 40
0.0
 40
0.0
 40
1.0
 40
1.0
 40
1.0
 40
2.0
 40
2.0
 40
2.0
 40
3.0
 40
3.0
 40
3.0
 40
4.0
 40
4.0
 40
4.0
 40
5.0
 40
5.0
 40
5.0
 40
6.0
 40
6.0
 40
6.0
 40
7.0
 40
7.0
 40
7.0
 40
8.0
 40
8.0
 40
8.0
 40
9.0
 40
9.0
 40
9.0
 40
10.0
 40
10.0
 40
10.0
 40
11.0
 40
11.0
 40
11.0
 40
11.0
 10
10.5709791802306
 20
-2.652643885223698
 10
10.94155676462156
 20
-2.202612264397658
 10
11.23971017301169
 20
-1.708744326764519
 10
11.46244537218834
 20
-1.170065452137982
 10
11.81722751212891
 20
-0.3120272331616181
 10
11.96301749717206
 20
0.5803488042255746
 10
11.89427588606062
 20
1.506773572682278
 10
11.89124826593671
 20
1.547564276377241
 10
11.87758199173997
 20
1.589895779616275
 10
11.85944745884199
 20
1.626890562597181
 10
11.4926711930616
 20
2.375103181061831
 10
10.62126358419151
 20
2.77191634134091
 10
9.82783878509968
 20
2.678855407569623
 10
9.600722293330767
 20
2.652216788748951
 10
9.387573758191694
 20
2.581019434650771
 10
9.21144159761924
 20
2.425218151051846
 10
9.080958847283883
 20
2.309797031137123
 10
9.064161193398679
 20
2.245981900156165
 10
9.148924360843667
 20
2.093862581680368
 10
9.242739200814588
 20
1.925497394286468
 10
9.342944550377625
 20
1.760340356663493
 10
9.447407640681577
 20
1.598326094288015
 10
9.782750156323774
 20
1.078232776793382
 10
10.09880898689731
 20
0.5480076077229417
 10
10.32766120224755
 20
-0.0294989356014462
 10
10.54035031642482
 20
-0.5662183738284562
 10
10.67281349497921
 20
-1.119464971353535
 10
10.66766750039445
 20
-1.700431566281496
 10
10.66469985689731
 20
-2.035556366768181
 10
10.61485208278001
 20
-2.364054949519085
 10
10.53215271106531
 20
-2.694821248531727
 10
10.5451304535857
 20
-2.68079151597615
 10
10.55885070674657
 20
-2.667372345482136
 10
10.5709791802306
 20
-2.652643885223698
 97
        0
 97
        0
 92
        1
 93
        1
 72
     4
 94
        3
 73
     0
 74
     1
 95
       23
 96
       19
 40
0.0
 40
0.0
 40
0.0
 40
0.0
 40
1.0
 40
1.0
 40
1.0
 40
2.0
 40
2.0
 40
2.0
 40
3.0
 40
3.0
 40
3.0
 40
4.0
 40
4.0
 40
4.0
 40
5.0
 40
5.0
 40
5.0
 40
6.0
 40
6.0
 40
6.0
 40
6.0
 10
10.30962982914783
 20
5.12335877455151
 10
9.952519996318744
 20
4.955027024127124
 10
8.318277467355049
 20
3.754694848513812
 10
8.02398955256606
 20
3.443033204338639
 10
8.280396829595423
 20
3.120367348549962
 10
8.537396075931913
 20
2.796955983289409
 10
8.794803163331052
 20
2.47303121810296
 10
9.17187861547619
 20
2.665903155115681
 10
9.548377692237182
 20
2.821328385264097
 10
9.959105429948169
 20
2.876382430476219
 10
10.50266940083267
 20
2.949242036787912
 10
10.98878116107997
 20
2.822305704398812
 10
11.38675606862128
 20
2.436309028891148
 10
11.5566650543906
 20
2.271513950211228
 10
11.69967572254495
 20
2.078985979153534
 10
11.84785757546724
 20
1.907233311874557
 10
11.73505593473068
 20
2.970563727637277
 10
11.17045396244192
 20
4.240348387331854
 10
10.30962982914783
 20
5.12335877455151
 97
        0
 97
        0
 92
        1
 93
        1
 72
     4
 94
        3
 73
     0
 74
     1
 95
       41
 96
       37
 40
0.0
 40
0.0
 40
0.0
 40
0.0
 40
1.0
 40
1.0
 40
1.0
 40
2.0
 40
2.0
 40
2.0
 40
3.0
 40
3.0
 40
3.0
 40
4.0
 40
4.0
 40
4.0
 40
5.0
 40
5.0
 40
5.0
 40
6.0
 40
6.0
 40
6.0
 40
7.0
 40
7.0
 40
7.0
 40
8.0
 40
8.0
 40
8.0
 40
9.0
 40
9.0
 40
9.0
 40
10.0
 40
10.0
 40
10.0
 40
11.0
 40
11.0
 40
11.0
 40
12.0
 40
12.0
 40
12.0
 40
12.0
 10
2.83519204829871
 20
6.047541616696081
 10
3.174611775034943
 20
6.047541616696081
 10
3.514897564263012
 20
6.062889785451589
 10
3.853240110780866
 20
6.043798775296787
 10
4.314120603756843
 20
6.017793509655777
 10
4.752666400655698
 20
5.887578330046962
 10
5.174630159642927
 20
5.700317281447925
 10
5.586711569822228
 20
5.517441948717381
 10
5.955349510100455
 20
5.262739207423465
 10
6.328829363465173
 20
5.015229912813715
 10
6.418261111545057
 20
4.955963259272443
 10
6.514511602332807
 20
4.905619328509374
 10
6.611719320085386
 20
4.859869607363913
 10
6.69617840603213
 20
4.820120097911235
 10
6.779160867425591
 20
4.827643416043227
 10
6.861512974470643
 20
4.883952172289279
 10
7.183489099050373
 20
5.104103878263786
 10
7.360068685259243
 20
5.406662419955485
 10
7.37613822289437
 20
5.795609420709272
 10
7.394378914421824
 20
6.237078103547471
 10
7.187328202935835
 20
6.587503953652154
 10
6.905798516212876
 20
6.903724205694061
 10
6.892388342212875
 20
6.918785789258006
 10
6.867495643000135
 20
6.928422683720605
 10
6.846648967035485
 20
6.931366214739455
 10
6.275694270429565
 20
7.011983891449214
 10
5.704133809892255
 20
7.009560535840819
 10
5.134590363316268
 20
6.924440404381206
 10
4.588684005269695
 20
6.842852943100524
 10
4.061857711643622
 20
6.688699667266241
 10
3.562390955892927
 20
6.452726614435682
 10
3.309922044066474
 20
6.333447647939591
 10
3.067648559040296
 20
6.192589091098625
 10
2.820764970590239
 20
6.061487531915569
 10
2.825574196415232
 20
6.056838893509065
 10
2.830383122356984
 20
6.05219025510256
 10
2.83519204829871
 20
6.047541616696081
 97
        0
 97
        0
 92
        1
 93
        1
 72
     4
 94
        3
 73
     0
 74
     1
 95
       17
 96
       13
 40
0.0
 40
0.0
 40
0.0
 40
0.0
 40
1.0
 40
1.0
 40
1.0
 40
2.0
 40
2.0
 40
2.0
 40
3.0
 40
3.0
 40
3.0
 40
4.0
 40
4.0
 40
4.0
 40
4.0
 10
10.15336372669076
 20
5.292462574105153
 10
9.297799543572511
 20
6.118432415260258
 10
8.311357963914057
 20
6.643328286180122
 10
7.134005982824343
 20
6.883371268567392
 10
7.779939259969094
 20
6.004092149132374
 10
7.697936816658587
 20
5.217010777980527
 10
6.898163491613381
 20
4.51158758430102
 10
7.205724833693112
 20
4.223880604894399
 10
7.499514342712928
 20
3.949056904820862
 10
7.798445647953586
 20
3.669423079273075
 10
8.554641155453485
 20
4.255860142337117
 10
9.267679281562499
 20
4.886123026298542
 10
10.15336372669076
 20
5.292462574105153
 97
        0
 97
        0
 75
     2
 76
     1
 98
        0
  0
ENDSEC
  0
SECTION
  2
OBJECTS
  0
DICTIONARY
  5
C
330
0
100
AcDbDictionary
281
     1
  3
ACAD_GROUP
350
D
  3
ACAD_LAYOUT
350
1A
  3
ACAD_MATERIAL
350
3B
  3
ACAD_MLEADERSTYLE
350
4D
  3
ACAD_MLINESTYLE
350
17
  3
ACAD_PLOTSETTINGS
350
19
  3
ACAD_PLOTSTYLENAME
350
E
  3
ACAD_TABLESTYLE
350
4C
  3
ACAD_VISUALSTYLE
350
2A
  0
SUN
  5
3F
330
29
100
AcDbSun
 90
        1
290
     0
 63
     7
421
 16777215
 40
1.0
291
     1
 91
  2455826
 92
 54000000
292
     0
 70
     2
 71
   256
280
     1
  0
DICTIONARY
  5
D
102
{ACAD_REACTORS
330
C
102
}
330
C
100
AcDbDictionary
281
     1
  0
DICTIONARY
  5
1A
102
{ACAD_REACTORS
330
C
102
}
330
C
100
AcDbDictionary
281
     1
  3
Layout1
350
1E
  3
Layout2
350
26
  3
Model
350
22
  0
DICTIONARY
  5
3B
102
{ACAD_REACTORS
330
C
102
}
330
C
100
AcDbDictionary
281
     1
  3
ByBlock
350
3D
  3
ByLayer
350
3C
  3
Global
350
3E
  0
DICTIONARY
  5
4D
102
{ACAD_REACTORS
330
C
102
}
330
C
100
AcDbDictionary
281
     1
  0
DICTIONARY
  5
17
102
{ACAD_REACTORS
330
C
102
}
330
C
100
AcDbDictionary
281
     1
  3
Standard
350
18
  0
DICTIONARY
  5
19
102
{ACAD_REACTORS
330
C
102
}
330
C
100
AcDbDictionary
281
     1
  0
ACDBDICTIONARYWDFLT
  5
E
102
{ACAD_REACTORS
330
C
102
}
330
C
100
AcDbDictionary
281
     1
  3
Normal
350
F
100
AcDbDictionaryWithDefault
340
F
  0
DICTIONARY
  5
4C
102
{ACAD_REACTORS
330
C
102
}
330
C
100
AcDbDictionary
281
     1
  0
DICTIONARY
  5
2A
102
{ACAD_REACTORS
330
C
102
}
330
C
100
AcDbDictionary
281
     1
  3
2dWireframe
350
2F
  3
3D Hidden
350
31
  3
3dWireframe
350
30
  3
Basic
350
32
  3
Brighten
350
36
  3
ColorChange
350
3A
  3
Conceptual
350
34
  3
Dim
350
35
  3
Facepattern
350
39
  3
Flat
350
2B
  3
FlatWithEdges
350
2C
  3
Gouraud
350
2D
  3
GouraudWithEdges
350
2E
  3
Linepattern
350
38
  3
Realistic
350
33
  3
Thicken
350
37
  0
LAYOUT
  5
1E
102
{ACAD_REACTORS
330
1A
102
}
330
1A
100
AcDbPlotSettings
  1

  2
none_device
  4

  6

 40
0.0
 41
0.0
 42
0.0
 43
0.0
 44
0.0
 45
0.0
 46
0.0
 47
0.0
 48
0.0
 49
0.0
140
0.0
141
0.0
142
1.0
143
1.0
 70
   688
 72
     0
 73
     0
 74
     5
  7

 75
    16
 76
     0
 77
     2
 78
   300
147
1.0
148
0.0
149
0.0
100
AcDbLayout
  1
Layout1
 70
     1
 71
     1
 10
0.0
 20
0.0
 11
12.0
 21
9.0
 12
0.0
 22
0.0
 32
0.0
 14
1.000000000000000E+20
 24
1.000000000000000E+20
 34
1.000000000000000E+20
 15
-1.000000000000000E+20
 25
-1.000000000000000E+20
 35
-1.000000000000000E+20
146
0.0
 13
0.0
 23
0.0
 33
0.0
 16
1.0
 26
0.0
 36
0.0
 17
0.0
 27
1.0
 37
0.0
 76
     0
330
1B
  0
LAYOUT
  5
26
102
{ACAD_REACTORS
330
1A
102
}
330
1A
100
AcDbPlotSettings
  1

  2
none_device
  4

  6

 40
0.0
 41
0.0
 42
0.0
 43
0.0
 44
0.0
 45
0.0
 46
0.0
 47
0.0
 48
0.0
 49
0.0
140
0.0
141
0.0
142
1.0
143
1.0
 70
   688
 72
     0
 73
     0
 74
     5
  7

 75
    16
 76
     0
 77
     2
 78
   300
147
1.0
148
0.0
149
0.0
100
AcDbLayout
  1
Layout2
 70
     1
 71
     2
 10
0.0
 20
0.0
 11
0.0
 21
0.0
 12
0.0
 22
0.0
 32
0.0
 14
0.0
 24
0.0
 34
0.0
 15
0.0
 25
0.0
 35
0.0
146
0.0
 13
0.0
 23
0.0
 33
0.0
 16
1.0
 26
0.0
 36
0.0
 17
0.0
 27
1.0
 37
0.0
 76
     0
330
23
  0
LAYOUT
  5
22
102
{ACAD_REACTORS
330
1A
102
}
330
1A
100
AcDbPlotSettings
  1

  2
none_device
  4

  6

 40
0.0
 41
0.0
 42
0.0
 43
0.0
 44
0.0
 45
0.0
 46
0.0
 47
0.0
 48
0.0
 49
0.0
140
0.0
141
0.0
142
1.0
143
1.0
 70
  1712
 72
     0
 73
     0
 74
     0
  7

 75
     0
 76
     0
 77
     2
 78
   300
147
1.0
148
0.0
149
0.0
100
AcDbLayout
  1
Model
 70
     1
 71
     0
 10
0.0
 20
0.0
 11
12.0
 21
9.0
 12
0.0
 22
0.0
 32
0.0
 14
1.000000000000000E+20
 24
1.000000000000000E+20
 34
1.000000000000000E+20
 15
-1.000000000000000E+20
 25
-1.000000000000000E+20
 35
-1.000000000000000E+20
146
0.0
 13
0.0
 23
0.0
 33
0.0
 16
1.0
 26
0.0
 36
0.0
 17
0.0
 27
1.0
 37
0.0
 76
     0
330
1F
331
29
  0
MATERIAL
  5
3D
102
{ACAD_REACTORS
330
3B
102
}
330
3B
100
AcDbMaterial
  1
ByBlock
 72
     1
 94
      127
  0
MATERIAL
  5
3C
102
{ACAD_REACTORS
330
3B
102
}
330
3B
100
AcDbMaterial
  1
ByLayer
 72
     1
 94
      127
  0
MATERIAL
  5
3E
102
{ACAD_REACTORS
330
3B
102
}
330
3B
100
AcDbMaterial
  1
Global
 72
     1
 94
      127
  0
MLINESTYLE
  5
18
102
{ACAD_REACTORS
330
17
102
}
330
17
100
AcDbMlineStyle
  2
Standard
 70
     0
  3

 62
   256
 51
90.0
 52
90.0
 71
     2
 49
0.5
 62
   256
  6
BYLAYER
 49
-0.5
 62
   256
  6
BYLAYER
  0
ACDBPLACEHOLDER
  5
F
102
{ACAD_REACTORS
330
E
102
}
330
E
  0
VISUALSTYLE
  5
2F
102
{ACAD_REACTORS
330
2A
102
}
330
2A
100
AcDbVisualStyle
  2
2dWireframe
 70
     4
177
     2
291
     0
 71
     0
176
     1
 72
     2
176
     1
 73
     0
176
     1
 90
        0
176
     1
 40
-0.6
176
     1
 41
-30.0
176
     1
 62
     5
 63
     7
421
 16777215
176
     1
 74
     1
176
     1
 91
        4
176
     1
 64
     7
176
     1
 65
   257
176
     1
 75
     1
176
     1
175
     1
176
     1
 42
1.0
176
     1
 92
        0
176
     1
 66
   257
176
     1
 43
1.0
176
     1
 76
     1
176
     1
 77
     6
176
     1
 78
     2
176
     1
 67
     7
176
     1
 79
     5
176
     1
170
     0
176
     1
171
     0
176
     1
290
     0
176
     1
 93
        1
176
     1
 44
0.0
176
     1
173
     0
176
     1
  0
VISUALSTYLE
  5
31
102
{ACAD_REACTORS
330
2A
102
}
330
2A
100
AcDbVisualStyle
  2
3D Hidden
 70
     6
177
     2
291
     0
 71
     1
176
     1
 72
     2
176
     1
 73
     2
176
     1
 90
        0
176
     1
 40
-0.6
176
     1
 41
-30.0
176
     1
 62
     5
 63
     7
421
 16777215
176
     1
 74
     2
176
     1
 91
        2
176
     1
 64
     7
176
     1
 65
   257
176
     1
 75
     2
176
     1
175
     1
176
     1
 42
40.0
176
     1
 92
        0
176
     1
 66
   257
176
     1
 43
1.0
176
     1
 76
     1
176
     1
 77
     6
176
     1
 78
     2
176
     1
 67
     7
176
     1
 79
     3
176
     1
170
     0
176
     1
171
     0
176
     1
290
     0
176
     1
 93
        1
176
     1
 44
0.0
176
     1
173
     0
176
     1
  0
VISUALSTYLE
  5
30
102
{ACAD_REACTORS
330
2A
102
}
330
2A
100
AcDbVisualStyle
  2
3dWireframe
 70
     5
177
     2
291
     0
 71
     0
176
     1
 72
     2
176
     1
 73
     0
176
     1
 90
        0
176
     1
 40
-0.6
176
     1
 41
-30.0
176
     1
 62
     5
 63
     7
421
 16777215
176
     1
 74
     1
176
     1
 91
        4
176
     1
 64
     7
176
     1
 65
   257
176
     1
 75
     1
176
     1
175
     1
176
     1
 42
1.0
176
     1
 92
        0
176
     1
 66
   257
176
     1
 43
1.0
176
     1
 76
     1
176
     1
 77
     6
176
     1
 78
     2
176
     1
 67
     7
176
     1
 79
     5
176
     1
170
     0
176
     1
171
     0
176
     1
290
     0
176
     1
 93
        1
176
     1
 44
0.0
176
     1
173
     0
176
     1
  0
VISUALSTYLE
  5
32
102
{ACAD_REACTORS
330
2A
102
}
330
2A
100
AcDbVisualStyle
  2
Basic
 70
     7
177
     2
291
     1
 71
     1
176
     1
 72
     0
176
     1
 73
     1
176
     1
 90
        0
176
     1
 40
-0.6
176
     1
 41
-30.0
176
     1
 62
     5
 63
     7
421
 16777215
176
     1
 74
     0
176
     1
 91
        4
176
     1
 64
     7
176
     1
 65
   257
176
     1
 75
     1
176
     1
175
     1
176
     1
 42
1.0
176
     1
 92
        8
176
     1
 66
     7
176
     1
 43
1.0
176
     1
 76
     1
176
     1
 77
     6
176
     1
 78
     2
176
     1
 67
     7
176
     1
 79
     5
176
     1
170
     0
176
     1
171
     0
176
     1
290
     0
176
     1
 93
        1
176
     1
 44
0.0
176
     1
173
     0
176
     1
  0
VISUALSTYLE
  5
36
102
{ACAD_REACTORS
330
2A
102
}
330
2A
100
AcDbVisualStyle
  2
Brighten
 70
    12
177
     2
291
     1
 71
     2
176
     1
 72
     2
176
     1
 73
     0
176
     1
 90
        0
176
     1
 40
-0.6
176
     1
 41
-30.0
176
     1
 62
     5
 63
     7
421
 16777215
176
     1
 74
     1
176
     1
 91
        4
176
     1
 64
     7
176
     1
 65
   257
176
     1
 75
     1
176
     1
175
     1
176
     1
 42
1.0
176
     1
 92
        8
176
     1
 66
     7
176
     1
 43
1.0
176
     1
 76
     1
176
     1
 77
     6
176
     1
 78
     2
176
     1
 67
     7
176
     1
 79
     5
176
     1
170
     0
176
     1
171
     0
176
     1
290
     0
176
     1
 93
        1
176
     1
 44
50.0
176
     1
173
     0
176
     1
  0
VISUALSTYLE
  5
3A
102
{ACAD_REACTORS
330
2A
102
}
330
2A
100
AcDbVisualStyle
  2
ColorChange
 70
    16
177
     2
291
     1
 71
     2
176
     1
 72
     2
176
     1
 73
     3
176
     1
 90
        0
176
     1
 40
-0.6
176
     1
 41
-30.0
176
     1
 62
     5
 63
     8
421
  8421504
176
     1
 74
     1
176
     1
 91
        4
176
     1
 64
     7
176
     1
 65
   257
176
     1
 75
     1
176
     1
175
     1
176
     1
 42
1.0
176
     1
 92
        8
176
     1
 66
     8
424
  8421504
176
     1
 43
1.0
176
     1
 76
     1
176
     1
 77
     6
176
     1
 78
     2
176
     1
 67
     7
176
     1
 79
     5
176
     1
170
     0
176
     1
171
     0
176
     1
290
     0
176
     1
 93
        1
176
     1
 44
0.0
176
     1
173
     0
176
     1
  0
VISUALSTYLE
  5
34
102
{ACAD_REACTORS
330
2A
102
}
330
2A
100
AcDbVisualStyle
  2
Conceptual
 70
     9
177
     2
291
     0
 71
     3
176
     1
 72
     2
176
     1
 73
     0
176
     1
 90
        0
176
     1
 40
-0.6
176
     1
 41
-30.0
176
     1
 62
     5
 63
     7
421
 16777215
176
     1
 74
     2
176
     1
 91
        2
176
     1
 64
     7
176
     1
 65
   257
176
     1
 75
     1
176
     1
175
     1
176
     1
 42
40.0
176
     1
 92
        8
176
     1
 66
     7
176
     1
 43
1.0
176
     1
 76
     1
176
     1
 77
     6
176
     1
 78
     2
176
     1
 67
     7
176
     1
 79
     3
176
     1
170
     0
176
     1
171
     0
176
     1
290
     0
176
     1
 93
        1
176
     1
 44
0.0
176
     1
173
     0
176
     1
  0
VISUALSTYLE
  5
35
102
{ACAD_REACTORS
330
2A
102
}
330
2A
100
AcDbVisualStyle
  2
Dim
 70
    11
177
     2
291
     1
 71
     2
176
     1
 72
     2
176
     1
 73
     0
176
     1
 90
        0
176
     1
 40
-0.6
176
     1
 41
-30.0
176
     1
 62
     5
 63
     7
421
 16777215
176
     1
 74
     1
176
     1
 91
        4
176
     1
 64
     7
176
     1
 65
   257
176
     1
 75
     1
176
     1
175
     1
176
     1
 42
1.0
176
     1
 92
        8
176
     1
 66
     7
176
     1
 43
1.0
176
     1
 76
     1
176
     1
 77
     6
176
     1
 78
     2
176
     1
 67
     7
176
     1
 79
     5
176
     1
170
     0
176
     1
171
     0
176
     1
290
     0
176
     1
 93
        1
176
     1
 44
-50.0
176
     1
173
     0
176
     1
  0
VISUALSTYLE
  5
39
102
{ACAD_REACTORS
330
2A
102
}
330
2A
100
AcDbVisualStyle
  2
Facepattern
 70
    15
177
     2
291
     1
 71
     2
176
     1
 72
     2
176
     1
 73
     0
176
     1
 90
        0
176
     1
 40
-0.6
176
     1
 41
-30.0
176
     1
 62
     5
 63
     7
421
 16777215
176
     1
 74
     1
176
     1
 91
        4
176
     1
 64
     7
176
     1
 65
   257
176
     1
 75
     1
176
     1
175
     1
176
     1
 42
1.0
176
     1
 92
        8
176
     1
 66
     7
176
     1
 43
1.0
176
     1
 76
     1
176
     1
 77
     6
176
     1
 78
     2
176
     1
 67
     7
176
     1
 79
     5
176
     1
170
     0
176
     1
171
     0
176
     1
290
     0
176
     1
 93
        1
176
     1
 44
0.0
176
     1
173
     0
176
     1
  0
VISUALSTYLE
  5
2B
102
{ACAD_REACTORS
330
2A
102
}
330
2A
100
AcDbVisualStyle
  2
Flat
 70
     0
177
     2
291
     1
 71
     2
176
     1
 72
     1
176
     1
 73
     1
176
     1
 90
        2
176
     1
 40
-0.6
176
     1
 41
30.0
176
     1
 62
     5
 63
     7
421
 16777215
176
     1
 74
     0
176
     1
 91
        4
176
     1
 64
     7
176
     1
 65
   257
176
     1
 75
     1
176
     1
175
     1
176
     1
 42
1.0
176
     1
 92
        8
176
     1
 66
     7
176
     1
 43
1.0
176
     1
 76
     1
176
     1
 77
     6
176
     1
 78
     2
176
     1
 67
     7
176
     1
 79
     5
176
     1
170
     0
176
     1
171
     0
176
     1
290
     0
176
     1
 93
       13
176
     1
 44
0.0
176
     1
173
     0
176
     1
  0
VISUALSTYLE
  5
2C
102
{ACAD_REACTORS
330
2A
102
}
330
2A
100
AcDbVisualStyle
  2
FlatWithEdges
 70
     1
177
     2
291
     1
 71
     2
176
     1
 72
     1
176
     1
 73
     1
176
     1
 90
        2
176
     1
 40
-0.6
176
     1
 41
30.0
176
     1
 62
     5
 63
     7
421
 16777215
176
     1
 74
     1
176
     1
 91
        4
176
     1
 64
     7
176
     1
 65
   257
176
     1
 75
     1
176
     1
175
     1
176
     1
 42
1.0
176
     1
 92
        0
176
     1
 66
   257
176
     1
 43
1.0
176
     1
 76
     1
176
     1
 77
     6
176
     1
 78
     2
176
     1
 67
     7
176
     1
 79
     5
176
     1
170
     0
176
     1
171
     0
176
     1
290
     0
176
     1
 93
       13
176
     1
 44
0.0
176
     1
173
     0
176
     1
  0
VISUALSTYLE
  5
2D
102
{ACAD_REACTORS
330
2A
102
}
330
2A
100
AcDbVisualStyle
  2
Gouraud
 70
     2
177
     2
291
     1
 71
     2
176
     1
 72
     2
176
     1
 73
     1
176
     1
 90
        2
176
     1
 40
-0.6
176
     1
 41
30.0
176
     1
 62
     5
 63
     7
421
 16777215
176
     1
 74
     0
176
     1
 91
        4
176
     1
 64
     7
176
     1
 65
   257
176
     1
 75
     1
176
     1
175
     1
176
     1
 42
1.0
176
     1
 92
        0
176
     1
 66
     7
176
     1
 43
1.0
176
     1
 76
     1
176
     1
 77
     6
176
     1
 78
     2
176
     1
 67
     7
176
     1
 79
     5
176
     1
170
     0
176
     1
171
     0
176
     1
290
     0
176
     1
 93
       13
176
     1
 44
0.0
176
     1
173
     0
176
     1
  0
VISUALSTYLE
  5
2E
102
{ACAD_REACTORS
330
2A
102
}
330
2A
100
AcDbVisualStyle
  2
GouraudWithEdges
 70
     3
177
     2
291
     1
 71
     2
176
     1
 72
     2
176
     1
 73
     1
176
     1
 90
        2
176
     1
 40
-0.6
176
     1
 41
30.0
176
     1
 62
     5
 63
     7
421
 16777215
176
     1
 74
     1
176
     1
 91
        4
176
     1
 64
     7
176
     1
 65
   257
176
     1
 75
     1
176
     1
175
     1
176
     1
 42
1.0
176
     1
 92
        0
176
     1
 66
   257
176
     1
 43
1.0
176
     1
 76
     1
176
     1
 77
     6
176
     1
 78
     2
176
     1
 67
     7
176
     1
 79
     5
176
     1
170
     0
176
     1
171
     0
176
     1
290
     0
176
     1
 93
       13
176
     1
 44
0.0
176
     1
173
     0
176
     1
  0
VISUALSTYLE
  5
38
102
{ACAD_REACTORS
330
2A
102
}
330
2A
100
AcDbVisualStyle
  2
Linepattern
 70
    14
177
     2
291
     1
 71
     2
176
     1
 72
     2
176
     1
 73
     0
176
     1
 90
        0
176
     1
 40
-0.6
176
     1
 41
-30.0
176
     1
 62
     5
 63
     7
421
 16777215
176
     1
 74
     1
176
     1
 91
        4
176
     1
 64
     7
176
     1
 65
   257
176
     1
 75
     7
176
     1
175
     7
176
     1
 42
1.0
176
     1
 92
        8
176
     1
 66
     7
176
     1
 43
1.0
176
     1
 76
     1
176
     1
 77
     6
176
     1
 78
     2
176
     1
 67
     7
176
     1
 79
     5
176
     1
170
     0
176
     1
171
     0
176
     1
290
     0
176
     1
 93
        1
176
     1
 44
0.0
176
     1
173
     0
176
     1
  0
VISUALSTYLE
  5
33
102
{ACAD_REACTORS
330
2A
102
}
330
2A
100
AcDbVisualStyle
  2
Realistic
 70
     8
177
     2
291
     0
 71
     2
176
     1
 72
     2
176
     1
 73
     0
176
     1
 90
        0
176
     1
 40
-0.6
176
     1
 41
-30.0
176
     1
 62
     5
 63
     7
421
 16777215
176
     1
 74
     1
176
     1
 91
        0
176
     1
 64
     7
176
     1
 65
   257
176
     1
 75
     1
176
     1
175
     1
176
     1
 42
1.0
176
     1
 92
        8
176
     1
 66
     8
424
  7895160
176
     1
 43
1.0
176
     1
 76
     1
176
     1
 77
     6
176
     1
 78
     2
176
     1
 67
     7
176
     1
 79
     5
176
     1
170
     0
176
     1
171
     0
176
     1
290
     0
176
     1
 93
       13
176
     1
 44
0.0
176
     1
173
     0
176
     1
  0
VISUALSTYLE
  5
37
102
{ACAD_REACTORS
330
2A
102
}
330
2A
100
AcDbVisualStyle
  2
Thicken
 70
    13
177
     2
291
     1
 71
     2
176
     1
 72
     2
176
     1
 73
     0
176
     1
 90
        0
176
     1
 40
-0.6
176
     1
 41
-30.0
176
     1
 62
     5
 63
     7
421
 16777215
176
     1
 74
     1
176
     1
 91
        4
176
     1
 64
     7
176
     1
 65
   257
176
     1
 75
     1
176
     1
175
     1
176
     1
 42
1.0
176
     1
 92
       12
176
     1
 66
     7
176
     1
 43
1.0
176
     1
 76
     1
176
     1
 77
     6
176
     1
 78
     2
176
     1
 67
     7
176
     1
 79
     5
176
     1
170
     0
176
     1
171
     0
176
     1
290
     0
176
     1
 93
        1
176
     1
 44
0.0
176
     1
173
     0
176
     1
  0
ENDSEC
  0
EOF
